<?xml version="1.0" encoding="UTF-8"?>
<svg fill="none" viewBox="0 0 50 41" xmlns="http://www.w3.org/2000/svg">
<g clip-path="url(#a)">
<path d="m41.708 34.026h-10.313l-5.1491 6.2324c-0.1823 0.2206-0.412 0.3973-0.6719 0.517s-0.5435 0.1794-0.8296 0.1746c-0.2862-0.0048-0.5676-0.074-0.8233-0.2024-0.2558-0.1285-0.4793-0.3128-0.6541-0.5394l-4.7672-6.1822h-10.207c-4.5798 0-8.2927-3.7128-8.2927-8.2927v-17.44c0-4.5798 3.7128-8.2926 8.2927-8.2926h33.415c4.5798 0 8.2927 3.7128 8.2927 8.2926v17.44c-4e-4 4.5799-3.7132 8.2927-8.2927 8.2927z" fill="#FC636B"/>
<path d="m34.52 19.853l-7.9382 7.0344c-0.3185 0.2823-0.7294 0.4381-1.1549 0.4381-0.4256 0-0.8364-0.1558-1.1549-0.4381l-7.9376-7.0344c-7.9564-7.0334 1.9513-17.364 9.093-9.0929 6.2038-8.7901 16.319 2.1297 9.0926 9.0929z" fill="#fff"/>
</g>
<defs>
<clipPath id="a">
<rect width="50" height="40.95" fill="#fff"/>
</clipPath>
</defs>
</svg>
