<?xml version="1.0" encoding="UTF-8"?>
<svg fill="none" viewBox="0 0 242 64" xmlns="http://www.w3.org/2000/svg">
<path d="m13.266 12.984c1.8125 0 3.4688 0.25 4.9688 0.75s2.7656 1.0781 3.7968 1.7344v6.4218c-1.125-0.6875-2.3281-1.3281-3.6093-1.9218-1.2813-0.5938-2.7344-0.8907-4.3594-0.8907-0.8125 0-1.625 0.125-2.4375 0.375-0.7812 0.25-1.4375 0.625-1.9688 1.125-0.5 0.5-0.75 1.1407-0.75 1.9219 0 1.0312 0.45313 1.8125 1.3594 2.3438 0.9063 0.5312 2.0156 1.0624 3.3282 1.5937l3.8437 1.5937c2.1875 0.9376 3.7969 2.0782 4.8281 3.4219 1.0313 1.3438 1.5469 2.875 1.5469 4.5938 0 1.875-0.5469 3.5312-1.6406 4.9687-1.0625 1.4063-2.5 2.5156-4.3125 3.3282-1.7813 0.8124-3.7656 1.2187-5.9532 1.2187-1.8437 0-3.6093-0.3125-5.2968-0.9375s-3.1563-1.3906-4.4063-2.2969v-6.4219c1.375 1 2.8906 1.8438 4.5469 2.5313s3.4219 1.0313 5.2969 1.0313c1.3125 0 2.4375-0.25 3.375-0.75 0.9375-0.5313 1.4062-1.3126 1.4062-2.3438 0-0.8125-0.3906-1.4688-1.1719-1.9688-0.75-0.5312-1.5781-0.9687-2.4843-1.3124l-4.8282-1.875c-2.4375-0.9376-4.0938-2.1563-4.9688-3.6563-0.84375-1.5313-1.2656-3.2187-1.2656-5.0625 0-1.9062 0.51562-3.5625 1.5469-4.9688 1.0625-1.4374 2.4375-2.5468 4.125-3.3281 1.6875-0.8125 3.5156-1.2187 5.4844-1.2187zm29.625 7.7344c1.875 0 3.6094 0.4843 5.2032 1.4531 1.625 0.9375 2.9218 2.3281 3.8906 4.1719 1 1.8124 1.5 4.0312 1.5 6.6562s-0.5 4.8906-1.5 6.7969c-0.9688 1.9062-2.2969 3.375-3.9844 4.4062-1.6562 1-3.5 1.5-5.5312 1.5-1.3126 0-2.625-0.3125-3.9376-0.9375-1.2812-0.6562-2.3593-1.4687-3.2343-2.4375v13.922h-5.9531v-34.922h5.9531v3.9844c0.6875-1.2813 1.6875-2.3594 3-3.2344 1.3125-0.9062 2.8437-1.3593 4.5937-1.3593zm-1.5 5.9531c-1.0625 0-2.0625 0.2812-3 0.8437-0.9375 0.5313-1.7031 1.2969-2.2968 2.2969-0.5626 1-0.8282 2.2031-0.7969 3.6094v3.4219c0.8437 0.875 1.75 1.6093 2.7187 2.2031 1 0.5625 2.0782 0.8437 3.2344 0.8437 1.2188 0 2.2812-0.3281 3.1875-0.9844 0.9063-0.6562 1.6094-1.5 2.1094-2.5312 0.5-1.0625 0.75-2.1875 0.75-3.375 0-1.7812-0.5469-3.2812-1.6407-4.5-1.0624-1.2188-2.4843-1.8281-4.2656-1.8281zm27.141-5.9531c1.2813 0 2.5782 0.2968 3.8907 0.8906 1.3125 0.5937 2.4062 1.3906 3.2812 2.3906v-2.6719h5.9531v23.672h-5.9531v-3.9844c-0.6875 1.2813-1.6875 2.3906-3 3.3282-1.3125 0.9062-2.8437 1.3593-4.5937 1.3593-1.9063 0-3.6719-0.4843-5.2969-1.4531-1.5937-0.9688-2.875-2.375-3.8437-4.2188-0.9688-1.8437-1.4532-4.0781-1.4532-6.7031s0.4844-4.875 1.4532-6.75c1-1.875 2.3281-3.3125 3.9843-4.3125 1.6875-1.0312 3.5469-1.5468 5.5781-1.5468zm1.2188 5.8124c-1.25 0-2.3281 0.3282-3.2344 0.9844-0.875 0.625-1.5625 1.4532-2.0625 2.4844s-0.75 2.1406-0.75 3.3281c0 1.7813 0.5313 3.2969 1.5938 4.5469 1.0937 1.25 2.5312 1.875 4.3125 1.875 1.0625 0 2.0468-0.2812 2.9531-0.8438 0.9375-0.5624 1.6875-1.3437 2.25-2.3437 0.5937-1.0313 0.8906-2.2656 0.8906-3.7031v-3.375c-0.8437-0.9063-1.7656-1.625-2.7656-2.1563-0.9687-0.5312-2.0313-0.7969-3.1875-0.7969zm30-5.8124c1.75 0 3.188 0.2812 4.312 0.8437 1.126 0.5625 2.016 1.1094 2.672 1.6406v5.4844c-0.812-0.5937-1.734-1.0937-2.765-1.5-1-0.4063-2.235-0.6094-3.703-0.6094-1.1879 0-2.2972 0.2969-3.3285 0.8907-1 0.5937-1.7969 1.3906-2.3906 2.3906-0.5938 1-0.8907 2.1406-0.8907 3.4218 0 1.9376 0.625 3.5313 1.875 4.7813s2.8282 1.875 4.7348 1.875c1.468 0 2.703-0.1875 3.703-0.5625 1.031-0.4062 1.953-0.9062 2.765-1.5v5.4375c-0.656 0.5625-1.546 1.1094-2.672 1.6406-1.124 0.5-2.562 0.75-4.312 0.75-2.4062 0-4.5469-0.5625-6.4219-1.6875-1.8437-1.1562-3.3125-2.6718-4.4062-4.5468-1.0625-1.9063-1.5938-3.9688-1.5938-6.1876 0-1.6562 0.2969-3.2343 0.8907-4.7343 0.625-1.5 1.5-2.8281 2.625-3.9844 1.125-1.1875 2.4374-2.125 3.9374-2.8125 1.5313-0.6875 3.1876-1.0312 4.9688-1.0312zm22.641 0c2.312 0 4.297 0.5 5.953 1.5 1.687 1 2.968 2.3906 3.844 4.1718 0.906 1.75 1.359 3.7813 1.359 6.0938v2.5312h-17.156c0.312 1.5938 1.093 2.875 2.343 3.8438 1.25 0.9687 2.782 1.4531 4.594 1.4531 1.719 0 3.281-0.3437 4.688-1.0313 1.406-0.6874 2.531-1.3906 3.375-2.1093l-0.047 5.5312c-0.75 0.6563-1.875 1.3281-3.375 2.0157-1.469 0.6562-3.094 0.9843-4.875 0.9843-2.344 0-4.485-0.5312-6.422-1.5937-1.906-1.0625-3.438-2.5156-4.594-4.3594-1.125-1.8438-1.687-3.9531-1.687-6.3281 0-2.3125 0.515-4.4219 1.547-6.3281 1.031-1.9063 2.453-3.4376 4.265-4.5938 1.813-1.1875 3.875-1.7812 6.188-1.7812zm-0.141 5.2031c-1.469 0-2.703 0.4531-3.703 1.3593-1 0.9063-1.688 2.125-2.063 3.6563h11.344c-0.125-1.6875-0.75-2.9375-1.875-3.75-1.125-0.8437-2.359-1.2656-3.703-1.2656zm31.641 2.0625c-1-0.5625-2.047-0.8438-3.141-0.8438-1.375 0-2.516 0.4532-3.422 1.3594-0.906 0.875-1.703 1.9688-2.39 3.2812v13.219h-5.954v-23.672h5.954v4.4531c0.812-1.4062 1.765-2.5781 2.859-3.5156 1.125-0.9375 2.391-1.4062 3.797-1.4062 0.844 0 1.609 0.1406 2.297 0.4218v6.7032zm15.609-7.2656c2.312 0 4.422 0.5624 6.328 1.6874 1.906 1.0938 3.438 2.5938 4.594 4.5 1.187 1.875 1.781 3.9844 1.781 6.3282 0 2.3437-0.594 4.4531-1.781 6.3281-1.156 1.875-2.688 3.375-4.594 4.5-1.906 1.0937-4.016 1.6406-6.328 1.6406-2.281 0-4.391-0.5469-6.328-1.6406-1.906-1.125-3.438-2.625-4.594-4.5s-1.734-3.9844-1.734-6.3281c0-2.3438 0.578-4.4532 1.734-6.3282 1.156-1.9062 2.688-3.4062 4.594-4.5 1.937-1.125 4.047-1.6874 6.328-1.6874zm0 5.7656c-1.125 0-2.172 0.2656-3.141 0.7968-0.968 0.5313-1.75 1.2969-2.343 2.2969-0.563 1-0.844 2.2188-0.844 3.6563s0.281 2.6562 0.844 3.6562c0.593 1 1.375 1.7656 2.343 2.2969 0.969 0.5 2.016 0.75 3.141 0.75s2.172-0.25 3.141-0.75c0.968-0.5313 1.75-1.2969 2.343-2.2969 0.594-1 0.891-2.2187 0.891-3.6562s-0.297-2.6563-0.891-3.6563c-0.593-1-1.375-1.7656-2.343-2.2969-0.969-0.5312-2.016-0.7968-3.141-0.7968zm23.297-17.484c1.125 0 2.094 0.40625 2.906 1.2188 0.813 0.7812 1.219 1.7187 1.219 2.8125 0 1.0625-0.406 1.9999-1.219 2.8125-0.812 0.8124-1.781 1.2187-2.906 1.2187s-2.094-0.4063-2.906-1.2187c-0.782-0.8126-1.172-1.75-1.172-2.8125 0-1.0938 0.39-2.0313 1.172-2.8125 0.812-0.81255 1.781-1.2188 2.906-1.2188zm3.469 12.328v23.672h-5.954v-18.609h-3.796v-5.0625h9.75zm30-10.078v33.75h-5.954v-3.9844c-0.687 1.2813-1.687 2.3906-3 3.3282-1.312 0.9062-2.843 1.3593-4.593 1.3593-1.907 0-3.672-0.4843-5.297-1.4531-1.594-0.9688-2.875-2.375-3.844-4.2188-0.969-1.8437-1.453-4.0781-1.453-6.7031s0.484-4.875 1.453-6.75c1-1.875 2.328-3.3125 3.984-4.3125 1.688-1.0312 3.547-1.5468 5.579-1.5468 1.281 0 2.578 0.2968 3.89 0.8906 1.313 0.5937 2.407 1.3906 3.281 2.3906v-12.75h5.954zm-11.907 15.328c-1.25 0-2.328 0.3281-3.234 0.9844-0.875 0.625-1.563 1.4531-2.063 2.4844-0.5 1-0.75 2.0937-0.75 3.2812 0 1.7813 0.532 3.2969 1.594 4.5469 1.094 1.25 2.532 1.875 4.313 1.875 1.062 0 2.047-0.2812 2.953-0.8438 0.937-0.5624 1.687-1.3437 2.25-2.3437 0.594-1.0313 0.89-2.2656 0.89-3.7031v-3.375c-0.843-0.9063-1.765-1.6094-2.765-2.1094-0.969-0.5312-2.031-0.7969-3.188-0.7969z" fill="#fff"/>
<path d="m0.9997 62.243h225" stroke="#fff" stroke-dasharray="6 6" stroke-width="3"/>
</svg>
