<?xml version="1.0" encoding="UTF-8"?>
<svg fill="none" viewBox="0 0 35 26" xmlns="http://www.w3.org/2000/svg">
<path d="m4.6715 15.815-4.9e-4 -4e-4c-2.8573-2.2348-4.0553-4.6837-4.163-6.9044-0.10798-2.2272 0.87591-4.3052 2.5386-5.8091 3.3112-2.995 9.3178-3.6924 14.425 1.5414l0.3956 0.40534 0.3532-0.44275c2.2195-2.7825 4.752-3.9661 7.1211-4.0932 2.3801-0.12772 4.651 0.80765 6.3409 2.3656 1.6906 1.5585 2.7759 3.7177 2.8162 6.0089 0.0401 2.2755-0.9496 4.7407-3.5196 6.9351l-11.748 9.2113c-0.379 0.2971-0.8774 0.4675-1.402 0.4675-0.5245 0-1.0229-0.1704-1.4019-0.4674v-1e-4l-11.755-9.2177z" fill="#ACA6A7" stroke="#000"/>
</svg>
